<svg width="64" height="64" viewBox="0 0 64 64" fill="none" xmlns="http://www.w3.org/2000/svg">
<rect width="64" height="64" fill="#E5E5E5"/>
<rect width="64" height="64" fill="#1C1822"/>
<path d="M58.3333 29.2285V31.6819C58.33 37.4323 56.468 43.0277 53.0248 47.6334C49.5817 52.2391 44.742 55.6085 39.2276 57.2389C33.7131 58.8694 27.8193 58.6736 22.4252 56.6808C17.0311 54.6879 12.4257 51.0048 9.29589 46.1807C6.16604 41.3566 4.67944 35.6501 5.0578 29.9121C5.43616 24.1741 7.65921 18.7121 11.3954 14.3407C15.1316 9.96944 20.1807 6.92294 25.7898 5.65565C31.3989 4.38835 37.2673 4.96816 42.52 7.30859" stroke="#CC4713" stroke-width="4" stroke-linecap="round" stroke-linejoin="round"/>
<path d="M58.6667 10.6667L32 37.36L24 29.36" stroke="#CC4713" stroke-width="4" stroke-linecap="round" stroke-linejoin="round"/>
</svg>
